erDiagram
  CUSTOMER ||--o{ ORDER : places
  ORDER ||--|{ LINE_ITEM : contains
  PRODUCT ||--o{ LINE_ITEM : "ordered in"
  CUSTOMER {
    int id PK
    string name
    string email
  }
  ORDER {
    int id PK
    int customer_id FK
    date created
  }
  LINE_ITEM {
    int qty
    float price
  }
  PRODUCT {
    int id PK
    string title
    float price
  }
